<mxfile host="app.diagrams.net" modified="2023-09-01T16:38:12.082Z" agent="Mozilla/5.0 (Windows NT 10.0; Win64; x64) AppleWebKit/537.36 (KHTML, like Gecko) Chrome/116.0.0.0 Safari/537.36" etag="gCGjt5p-Ju2gVvMpMin7" version="21.6.9" type="device">
  <diagram name="Page-1" id="7df_qZXdBZv5J5-GmiNy">
    <mxGraphModel dx="1434" dy="790" grid="1" gridSize="10" guides="1" tooltips="1" connect="1" arrows="1" fold="1" page="1" pageScale="1" pageWidth="850" pageHeight="1100" math="0" shadow="0">
      <root>
        <mxCell id="0" />
        <mxCell id="1" parent="0" />
        <mxCell id="482npglJlpI3Nw4KK3lM-3" value="" style="edgeStyle=orthogonalEdgeStyle;rounded=0;orthogonalLoop=1;jettySize=auto;html=1;" edge="1" parent="1" source="482npglJlpI3Nw4KK3lM-1" target="482npglJlpI3Nw4KK3lM-2">
          <mxGeometry relative="1" as="geometry" />
        </mxCell>
        <mxCell id="482npglJlpI3Nw4KK3lM-1" value="Start" style="ellipse;whiteSpace=wrap;html=1;" vertex="1" parent="1">
          <mxGeometry y="40" width="120" height="80" as="geometry" />
        </mxCell>
        <mxCell id="482npglJlpI3Nw4KK3lM-5" value="" style="edgeStyle=orthogonalEdgeStyle;rounded=0;orthogonalLoop=1;jettySize=auto;html=1;" edge="1" parent="1" source="482npglJlpI3Nw4KK3lM-2" target="482npglJlpI3Nw4KK3lM-4">
          <mxGeometry relative="1" as="geometry" />
        </mxCell>
        <mxCell id="482npglJlpI3Nw4KK3lM-2" value="INPUT&lt;br&gt;harga&lt;br&gt;voucher&lt;br&gt;jarak&lt;br&gt;pajak" style="shape=parallelogram;perimeter=parallelogramPerimeter;whiteSpace=wrap;html=1;fixedSize=1;" vertex="1" parent="1">
          <mxGeometry x="180" y="40" width="140" height="80" as="geometry" />
        </mxCell>
        <mxCell id="482npglJlpI3Nw4KK3lM-7" value="" style="edgeStyle=orthogonalEdgeStyle;rounded=0;orthogonalLoop=1;jettySize=auto;html=1;" edge="1" parent="1" source="482npglJlpI3Nw4KK3lM-4" target="482npglJlpI3Nw4KK3lM-6">
          <mxGeometry relative="1" as="geometry" />
        </mxCell>
        <mxCell id="482npglJlpI3Nw4KK3lM-4" value="const voucherA = &quot;FAZZFOOD50&quot;&lt;br&gt;const voucherB = &quot;DITRAKTIR60&quot;&lt;br&gt;let diskon;&lt;br&gt;let ongkir;&lt;br&gt;let tax;&lt;br&gt;let subTotal;" style="whiteSpace=wrap;html=1;" vertex="1" parent="1">
          <mxGeometry x="410" y="20" width="190" height="120" as="geometry" />
        </mxCell>
        <mxCell id="482npglJlpI3Nw4KK3lM-9" value="TRUE" style="edgeStyle=orthogonalEdgeStyle;rounded=0;orthogonalLoop=1;jettySize=auto;html=1;entryX=0;entryY=0.5;entryDx=0;entryDy=0;" edge="1" parent="1" source="482npglJlpI3Nw4KK3lM-6" target="482npglJlpI3Nw4KK3lM-8">
          <mxGeometry relative="1" as="geometry" />
        </mxCell>
        <mxCell id="482npglJlpI3Nw4KK3lM-16" value="FALSE" style="edgeStyle=orthogonalEdgeStyle;rounded=0;orthogonalLoop=1;jettySize=auto;html=1;" edge="1" parent="1" source="482npglJlpI3Nw4KK3lM-6" target="482npglJlpI3Nw4KK3lM-15">
          <mxGeometry relative="1" as="geometry" />
        </mxCell>
        <mxCell id="482npglJlpI3Nw4KK3lM-6" value="is&lt;br&gt;voucher = voucherA &amp;amp;&lt;br&gt;harga &amp;gt;= 50000?" style="rhombus;whiteSpace=wrap;html=1;" vertex="1" parent="1">
          <mxGeometry x="457.5" y="240" width="95" height="100" as="geometry" />
        </mxCell>
        <mxCell id="482npglJlpI3Nw4KK3lM-11" value="" style="edgeStyle=orthogonalEdgeStyle;rounded=0;orthogonalLoop=1;jettySize=auto;html=1;" edge="1" parent="1" source="482npglJlpI3Nw4KK3lM-8" target="482npglJlpI3Nw4KK3lM-10">
          <mxGeometry relative="1" as="geometry" />
        </mxCell>
        <mxCell id="482npglJlpI3Nw4KK3lM-8" value="diskon = harga * 0.5" style="whiteSpace=wrap;html=1;" vertex="1" parent="1">
          <mxGeometry x="600" y="170" width="120" height="60" as="geometry" />
        </mxCell>
        <mxCell id="482npglJlpI3Nw4KK3lM-13" value="" style="edgeStyle=orthogonalEdgeStyle;rounded=0;orthogonalLoop=1;jettySize=auto;html=1;" edge="1" parent="1" source="482npglJlpI3Nw4KK3lM-10" target="482npglJlpI3Nw4KK3lM-12">
          <mxGeometry relative="1" as="geometry" />
        </mxCell>
        <mxCell id="482npglJlpI3Nw4KK3lM-14" value="TRUE" style="edgeLabel;html=1;align=center;verticalAlign=middle;resizable=0;points=[];" vertex="1" connectable="0" parent="482npglJlpI3Nw4KK3lM-13">
          <mxGeometry x="-0.0857" relative="1" as="geometry">
            <mxPoint as="offset" />
          </mxGeometry>
        </mxCell>
        <mxCell id="482npglJlpI3Nw4KK3lM-10" value="is diskon &amp;gt; 50000?" style="rhombus;whiteSpace=wrap;html=1;" vertex="1" parent="1">
          <mxGeometry x="770" y="290" width="80" height="80" as="geometry" />
        </mxCell>
        <mxCell id="482npglJlpI3Nw4KK3lM-12" value="diskon = 50000" style="whiteSpace=wrap;html=1;" vertex="1" parent="1">
          <mxGeometry x="590" y="300" width="120" height="60" as="geometry" />
        </mxCell>
        <mxCell id="482npglJlpI3Nw4KK3lM-19" value="" style="edgeStyle=orthogonalEdgeStyle;rounded=0;orthogonalLoop=1;jettySize=auto;html=1;entryX=1;entryY=0.5;entryDx=0;entryDy=0;exitX=0.5;exitY=0;exitDx=0;exitDy=0;" edge="1" parent="1" source="482npglJlpI3Nw4KK3lM-15" target="482npglJlpI3Nw4KK3lM-18">
          <mxGeometry relative="1" as="geometry" />
        </mxCell>
        <mxCell id="482npglJlpI3Nw4KK3lM-26" value="TRUE" style="edgeLabel;html=1;align=center;verticalAlign=middle;resizable=0;points=[];" vertex="1" connectable="0" parent="482npglJlpI3Nw4KK3lM-19">
          <mxGeometry x="-0.6133" y="-1" relative="1" as="geometry">
            <mxPoint as="offset" />
          </mxGeometry>
        </mxCell>
        <mxCell id="482npglJlpI3Nw4KK3lM-25" value="FALSE" style="edgeStyle=orthogonalEdgeStyle;rounded=0;orthogonalLoop=1;jettySize=auto;html=1;" edge="1" parent="1" source="482npglJlpI3Nw4KK3lM-15" target="482npglJlpI3Nw4KK3lM-24">
          <mxGeometry relative="1" as="geometry" />
        </mxCell>
        <mxCell id="482npglJlpI3Nw4KK3lM-15" value="is&lt;br&gt;voucher = voucherB &amp;amp;&lt;br&gt;harga &amp;gt;= 25000?" style="rhombus;whiteSpace=wrap;html=1;" vertex="1" parent="1">
          <mxGeometry x="282.5" y="240" width="95" height="100" as="geometry" />
        </mxCell>
        <mxCell id="482npglJlpI3Nw4KK3lM-21" value="" style="edgeStyle=orthogonalEdgeStyle;rounded=0;orthogonalLoop=1;jettySize=auto;html=1;" edge="1" parent="1" source="482npglJlpI3Nw4KK3lM-18" target="482npglJlpI3Nw4KK3lM-20">
          <mxGeometry relative="1" as="geometry" />
        </mxCell>
        <mxCell id="482npglJlpI3Nw4KK3lM-18" value="diskon = harga * 0.6" style="whiteSpace=wrap;html=1;" vertex="1" parent="1">
          <mxGeometry x="100" y="170" width="120" height="60" as="geometry" />
        </mxCell>
        <mxCell id="482npglJlpI3Nw4KK3lM-23" value="TRUE" style="edgeStyle=orthogonalEdgeStyle;rounded=0;orthogonalLoop=1;jettySize=auto;html=1;" edge="1" parent="1" source="482npglJlpI3Nw4KK3lM-20" target="482npglJlpI3Nw4KK3lM-22">
          <mxGeometry relative="1" as="geometry" />
        </mxCell>
        <mxCell id="482npglJlpI3Nw4KK3lM-20" value="is diskon &amp;gt; 30000?" style="rhombus;whiteSpace=wrap;html=1;" vertex="1" parent="1">
          <mxGeometry y="290" width="80" height="80" as="geometry" />
        </mxCell>
        <mxCell id="482npglJlpI3Nw4KK3lM-22" value="diskon = 30000" style="whiteSpace=wrap;html=1;" vertex="1" parent="1">
          <mxGeometry x="140" y="300" width="120" height="60" as="geometry" />
        </mxCell>
        <mxCell id="482npglJlpI3Nw4KK3lM-28" value="" style="edgeStyle=orthogonalEdgeStyle;rounded=0;orthogonalLoop=1;jettySize=auto;html=1;" edge="1" parent="1" source="482npglJlpI3Nw4KK3lM-24" target="482npglJlpI3Nw4KK3lM-27">
          <mxGeometry relative="1" as="geometry" />
        </mxCell>
        <mxCell id="482npglJlpI3Nw4KK3lM-24" value="diskon = 0" style="whiteSpace=wrap;html=1;" vertex="1" parent="1">
          <mxGeometry x="350" y="380" width="120" height="60" as="geometry" />
        </mxCell>
        <mxCell id="482npglJlpI3Nw4KK3lM-27" value="is&lt;br&gt;jarak &amp;gt; 2?" style="rhombus;whiteSpace=wrap;html=1;" vertex="1" parent="1">
          <mxGeometry x="373.28" y="470" width="76.72" height="80" as="geometry" />
        </mxCell>
        <mxCell id="482npglJlpI3Nw4KK3lM-29" value="FALSE" style="endArrow=classic;html=1;rounded=0;exitX=0.5;exitY=1;exitDx=0;exitDy=0;entryX=0;entryY=0.5;entryDx=0;entryDy=0;" edge="1" parent="1" source="482npglJlpI3Nw4KK3lM-20" target="482npglJlpI3Nw4KK3lM-27">
          <mxGeometry x="-0.8704" width="50" height="50" relative="1" as="geometry">
            <mxPoint x="400" y="430" as="sourcePoint" />
            <mxPoint x="450" y="380" as="targetPoint" />
            <Array as="points">
              <mxPoint x="40" y="510" />
            </Array>
            <mxPoint as="offset" />
          </mxGeometry>
        </mxCell>
        <mxCell id="482npglJlpI3Nw4KK3lM-30" value="" style="endArrow=classic;html=1;rounded=0;exitX=0.5;exitY=1;exitDx=0;exitDy=0;entryX=1;entryY=0.5;entryDx=0;entryDy=0;" edge="1" parent="1" source="482npglJlpI3Nw4KK3lM-10" target="482npglJlpI3Nw4KK3lM-27">
          <mxGeometry width="50" height="50" relative="1" as="geometry">
            <mxPoint x="400" y="430" as="sourcePoint" />
            <mxPoint x="450" y="380" as="targetPoint" />
            <Array as="points">
              <mxPoint x="810" y="510" />
            </Array>
          </mxGeometry>
        </mxCell>
        <mxCell id="482npglJlpI3Nw4KK3lM-33" value="FALSE" style="edgeLabel;html=1;align=center;verticalAlign=middle;resizable=0;points=[];" vertex="1" connectable="0" parent="482npglJlpI3Nw4KK3lM-30">
          <mxGeometry x="-0.8094" y="-4" relative="1" as="geometry">
            <mxPoint y="-17" as="offset" />
          </mxGeometry>
        </mxCell>
        <mxCell id="482npglJlpI3Nw4KK3lM-31" value="" style="endArrow=classic;html=1;rounded=0;exitX=0.5;exitY=1;exitDx=0;exitDy=0;entryX=0;entryY=0;entryDx=0;entryDy=0;" edge="1" parent="1" source="482npglJlpI3Nw4KK3lM-22" target="482npglJlpI3Nw4KK3lM-27">
          <mxGeometry width="50" height="50" relative="1" as="geometry">
            <mxPoint x="400" y="430" as="sourcePoint" />
            <mxPoint x="450" y="380" as="targetPoint" />
            <Array as="points">
              <mxPoint x="200" y="490" />
            </Array>
          </mxGeometry>
        </mxCell>
        <mxCell id="482npglJlpI3Nw4KK3lM-32" value="" style="endArrow=classic;html=1;rounded=0;exitX=0.5;exitY=1;exitDx=0;exitDy=0;entryX=1;entryY=0;entryDx=0;entryDy=0;" edge="1" parent="1" source="482npglJlpI3Nw4KK3lM-12" target="482npglJlpI3Nw4KK3lM-27">
          <mxGeometry width="50" height="50" relative="1" as="geometry">
            <mxPoint x="400" y="430" as="sourcePoint" />
            <mxPoint x="450" y="380" as="targetPoint" />
            <Array as="points">
              <mxPoint x="650" y="490" />
            </Array>
          </mxGeometry>
        </mxCell>
        <mxCell id="482npglJlpI3Nw4KK3lM-35" value="ongkir = 5000" style="rounded=0;whiteSpace=wrap;html=1;" vertex="1" parent="1">
          <mxGeometry x="140" y="550" width="120" height="60" as="geometry" />
        </mxCell>
        <mxCell id="482npglJlpI3Nw4KK3lM-36" value="ongkir = &lt;br&gt;5000 + (jarak - 2) * 3000" style="rounded=0;whiteSpace=wrap;html=1;" vertex="1" parent="1">
          <mxGeometry x="590" y="550" width="120" height="60" as="geometry" />
        </mxCell>
        <mxCell id="482npglJlpI3Nw4KK3lM-37" value="" style="endArrow=classic;html=1;rounded=0;entryX=0;entryY=0.5;entryDx=0;entryDy=0;exitX=1;exitY=1;exitDx=0;exitDy=0;" edge="1" parent="1" source="482npglJlpI3Nw4KK3lM-27" target="482npglJlpI3Nw4KK3lM-36">
          <mxGeometry width="50" height="50" relative="1" as="geometry">
            <mxPoint x="400" y="430" as="sourcePoint" />
            <mxPoint x="450" y="380" as="targetPoint" />
            <Array as="points">
              <mxPoint x="430" y="580" />
            </Array>
          </mxGeometry>
        </mxCell>
        <mxCell id="482npglJlpI3Nw4KK3lM-39" value="TRUE" style="edgeLabel;html=1;align=center;verticalAlign=middle;resizable=0;points=[];" vertex="1" connectable="0" parent="482npglJlpI3Nw4KK3lM-37">
          <mxGeometry x="0.0381" y="-5" relative="1" as="geometry">
            <mxPoint x="-31" y="-5" as="offset" />
          </mxGeometry>
        </mxCell>
        <mxCell id="482npglJlpI3Nw4KK3lM-38" value="" style="endArrow=classic;html=1;rounded=0;exitX=0;exitY=1;exitDx=0;exitDy=0;entryX=1;entryY=0.5;entryDx=0;entryDy=0;" edge="1" parent="1" source="482npglJlpI3Nw4KK3lM-27" target="482npglJlpI3Nw4KK3lM-35">
          <mxGeometry width="50" height="50" relative="1" as="geometry">
            <mxPoint x="400" y="430" as="sourcePoint" />
            <mxPoint x="450" y="380" as="targetPoint" />
            <Array as="points">
              <mxPoint x="392" y="580" />
            </Array>
          </mxGeometry>
        </mxCell>
        <mxCell id="482npglJlpI3Nw4KK3lM-40" value="FALSE" style="edgeLabel;html=1;align=center;verticalAlign=middle;resizable=0;points=[];" vertex="1" connectable="0" parent="482npglJlpI3Nw4KK3lM-38">
          <mxGeometry x="-0.1868" y="-2" relative="1" as="geometry">
            <mxPoint as="offset" />
          </mxGeometry>
        </mxCell>
        <mxCell id="482npglJlpI3Nw4KK3lM-41" value="is&lt;br&gt;pajak = true?" style="rhombus;whiteSpace=wrap;html=1;" vertex="1" parent="1">
          <mxGeometry x="373.28" y="640" width="80" height="80" as="geometry" />
        </mxCell>
        <mxCell id="482npglJlpI3Nw4KK3lM-42" value="" style="endArrow=classic;html=1;rounded=0;exitX=0.5;exitY=1;exitDx=0;exitDy=0;entryX=0;entryY=0;entryDx=0;entryDy=0;" edge="1" parent="1" source="482npglJlpI3Nw4KK3lM-35" target="482npglJlpI3Nw4KK3lM-41">
          <mxGeometry width="50" height="50" relative="1" as="geometry">
            <mxPoint x="400" y="530" as="sourcePoint" />
            <mxPoint x="450" y="480" as="targetPoint" />
            <Array as="points">
              <mxPoint x="200" y="660" />
            </Array>
          </mxGeometry>
        </mxCell>
        <mxCell id="482npglJlpI3Nw4KK3lM-43" value="" style="endArrow=classic;html=1;rounded=0;exitX=0.5;exitY=1;exitDx=0;exitDy=0;entryX=1;entryY=0;entryDx=0;entryDy=0;" edge="1" parent="1" source="482npglJlpI3Nw4KK3lM-36" target="482npglJlpI3Nw4KK3lM-41">
          <mxGeometry width="50" height="50" relative="1" as="geometry">
            <mxPoint x="400" y="530" as="sourcePoint" />
            <mxPoint x="450" y="480" as="targetPoint" />
            <Array as="points">
              <mxPoint x="650" y="660" />
            </Array>
          </mxGeometry>
        </mxCell>
        <mxCell id="482npglJlpI3Nw4KK3lM-44" value="tax = 0" style="rounded=0;whiteSpace=wrap;html=1;" vertex="1" parent="1">
          <mxGeometry x="140" y="740" width="120" height="60" as="geometry" />
        </mxCell>
        <mxCell id="482npglJlpI3Nw4KK3lM-45" value="tax = harga * 0.05" style="rounded=0;whiteSpace=wrap;html=1;" vertex="1" parent="1">
          <mxGeometry x="590" y="740" width="120" height="60" as="geometry" />
        </mxCell>
        <mxCell id="482npglJlpI3Nw4KK3lM-46" value="" style="endArrow=classic;html=1;rounded=0;exitX=0;exitY=1;exitDx=0;exitDy=0;entryX=1;entryY=0.5;entryDx=0;entryDy=0;" edge="1" parent="1" source="482npglJlpI3Nw4KK3lM-41" target="482npglJlpI3Nw4KK3lM-44">
          <mxGeometry width="50" height="50" relative="1" as="geometry">
            <mxPoint x="400" y="630" as="sourcePoint" />
            <mxPoint x="450" y="580" as="targetPoint" />
            <Array as="points">
              <mxPoint x="393" y="770" />
            </Array>
          </mxGeometry>
        </mxCell>
        <mxCell id="482npglJlpI3Nw4KK3lM-49" value="FALSE" style="edgeLabel;html=1;align=center;verticalAlign=middle;resizable=0;points=[];" vertex="1" connectable="0" parent="482npglJlpI3Nw4KK3lM-46">
          <mxGeometry x="-0.1133" y="1" relative="1" as="geometry">
            <mxPoint x="-13" y="-1" as="offset" />
          </mxGeometry>
        </mxCell>
        <mxCell id="482npglJlpI3Nw4KK3lM-47" value="" style="endArrow=classic;html=1;rounded=0;exitX=1;exitY=1;exitDx=0;exitDy=0;entryX=0;entryY=0.5;entryDx=0;entryDy=0;" edge="1" parent="1" source="482npglJlpI3Nw4KK3lM-41" target="482npglJlpI3Nw4KK3lM-45">
          <mxGeometry width="50" height="50" relative="1" as="geometry">
            <mxPoint x="400" y="630" as="sourcePoint" />
            <mxPoint x="450" y="580" as="targetPoint" />
            <Array as="points">
              <mxPoint x="433" y="770" />
            </Array>
          </mxGeometry>
        </mxCell>
        <mxCell id="482npglJlpI3Nw4KK3lM-48" value="TRUE" style="edgeLabel;html=1;align=center;verticalAlign=middle;resizable=0;points=[];" vertex="1" connectable="0" parent="482npglJlpI3Nw4KK3lM-47">
          <mxGeometry x="-0.1013" y="-5" relative="1" as="geometry">
            <mxPoint y="-5" as="offset" />
          </mxGeometry>
        </mxCell>
        <mxCell id="482npglJlpI3Nw4KK3lM-54" value="" style="edgeStyle=orthogonalEdgeStyle;rounded=0;orthogonalLoop=1;jettySize=auto;html=1;" edge="1" parent="1" source="482npglJlpI3Nw4KK3lM-50" target="482npglJlpI3Nw4KK3lM-53">
          <mxGeometry relative="1" as="geometry" />
        </mxCell>
        <mxCell id="482npglJlpI3Nw4KK3lM-50" value="subTotal = &lt;br&gt;harga - diskon + ongkir + tax" style="rounded=0;whiteSpace=wrap;html=1;" vertex="1" parent="1">
          <mxGeometry x="30" y="900" width="120" height="60" as="geometry" />
        </mxCell>
        <mxCell id="482npglJlpI3Nw4KK3lM-51" value="" style="endArrow=classic;html=1;rounded=0;exitX=0.5;exitY=1;exitDx=0;exitDy=0;entryX=0.75;entryY=0;entryDx=0;entryDy=0;" edge="1" parent="1" source="482npglJlpI3Nw4KK3lM-45" target="482npglJlpI3Nw4KK3lM-50">
          <mxGeometry width="50" height="50" relative="1" as="geometry">
            <mxPoint x="400" y="730" as="sourcePoint" />
            <mxPoint x="450" y="680" as="targetPoint" />
            <Array as="points">
              <mxPoint x="650" y="820" />
              <mxPoint x="120" y="820" />
            </Array>
          </mxGeometry>
        </mxCell>
        <mxCell id="482npglJlpI3Nw4KK3lM-52" value="" style="endArrow=classic;html=1;rounded=0;exitX=0;exitY=0.5;exitDx=0;exitDy=0;entryX=0.25;entryY=0;entryDx=0;entryDy=0;" edge="1" parent="1" source="482npglJlpI3Nw4KK3lM-44" target="482npglJlpI3Nw4KK3lM-50">
          <mxGeometry width="50" height="50" relative="1" as="geometry">
            <mxPoint x="400" y="730" as="sourcePoint" />
            <mxPoint x="450" y="680" as="targetPoint" />
            <Array as="points">
              <mxPoint x="60" y="770" />
            </Array>
          </mxGeometry>
        </mxCell>
        <mxCell id="482npglJlpI3Nw4KK3lM-56" value="" style="edgeStyle=orthogonalEdgeStyle;rounded=0;orthogonalLoop=1;jettySize=auto;html=1;" edge="1" parent="1" source="482npglJlpI3Nw4KK3lM-53" target="482npglJlpI3Nw4KK3lM-55">
          <mxGeometry relative="1" as="geometry" />
        </mxCell>
        <mxCell id="482npglJlpI3Nw4KK3lM-53" value="OUTPUT&lt;br&gt;&quot;Harga : &quot; harga&lt;br&gt;&quot;Potongan : &quot; diskon&lt;br&gt;&quot;Biaya Antar : &quot; ongkir&lt;br&gt;&quot;Pajak : &quot; tax&lt;br&gt;&quot;SubTotal : &quot; subTotal" style="shape=parallelogram;perimeter=parallelogramPerimeter;whiteSpace=wrap;html=1;fixedSize=1;" vertex="1" parent="1">
          <mxGeometry x="322.89" y="880" width="177.5" height="100" as="geometry" />
        </mxCell>
        <mxCell id="482npglJlpI3Nw4KK3lM-55" value="End" style="ellipse;whiteSpace=wrap;html=1;" vertex="1" parent="1">
          <mxGeometry x="660" y="890" width="120" height="80" as="geometry" />
        </mxCell>
      </root>
    </mxGraphModel>
  </diagram>
</mxfile>
